<?xml version="1.0" encoding="utf-8"?>
<!-- Generator: Adobe Illustrator 27.9.0, SVG Export Plug-In . SVG Version: 6.00 Build 0)  -->
<svg version="1.1" id="Layer_1" xmlns="http://www.w3.org/2000/svg" xmlns:xlink="http://www.w3.org/1999/xlink" x="0px" y="0px"
	 viewBox="0 0 720 121.16" style="enable-background:new 0 0 720 121.16;" xml:space="preserve">
<style type="text/css">
	.st0{fill:url(#SVGID_1_);}
	.st1{fill:url(#SVGID_00000137816276391098862980000010594041598368411303_);}
	.st2{fill:url(#SVGID_00000058562811619925860120000002027354687584356257_);}
	.st3{fill:#271E30;}
	.st4{fill:url(#SVGID_00000035498880040298386430000014891107117334090904_);}
	.st5{fill:url(#SVGID_00000010277439861866662780000011458270616439912587_);}
</style>
<g>
	
		<linearGradient id="SVGID_1_" gradientUnits="userSpaceOnUse" x1="-1114.2949" y1="90.7496" x2="-1072.6427" y2="90.7496" gradientTransform="matrix(1 0 -0.9004 1 1221.8483 0)">
		<stop  offset="0" style="stop-color:#5C368F"/>
		<stop  offset="1" style="stop-color:#74CBE5"/>
	</linearGradient>
	<path class="st0" d="M93.33,60.5c-10.68,12.18-29.62,12.2-40.34,0.1L0,121h40.26L93.33,60.5L93.33,60.5z"/>
</g>
<g>
	
		<linearGradient id="SVGID_00000008866587688842238590000013145856261379829160_" gradientUnits="userSpaceOnUse" x1="-888.1422" y1="228.9823" x2="-876.2823" y2="228.9823" gradientTransform="matrix(1 0 -0.9004 -1 1221.8483 289.4824)">
		<stop  offset="0" style="stop-color:#5C368F"/>
		<stop  offset="1" style="stop-color:#74CBE5"/>
	</linearGradient>
	<polygon style="fill:url(#SVGID_00000008866587688842238590000013145856261379829160_);" points="133.46,60.5 133.46,60.5 
		133.46,60.5 	"/>
	
		<linearGradient id="SVGID_00000181803504690435834310000009292320855983304584_" gradientUnits="userSpaceOnUse" x1="-922.468" y1="259.2325" x2="-881.0245" y2="259.2325" gradientTransform="matrix(1 0 -0.9004 -1 1221.8483 289.4824)">
		<stop  offset="0" style="stop-color:#5C368F"/>
		<stop  offset="1" style="stop-color:#74CBE5"/>
	</linearGradient>
	<path style="fill:url(#SVGID_00000181803504690435834310000009292320855983304584_);" d="M133.46,60.5L88.52,9.27
		C83.35,3.38,75.89,0,68.05,0H40.13L93.2,60.5l0,0C103.87,48.34,122.8,48.34,133.46,60.5z"/>
</g>
<g>
	<g>
		<path class="st3" d="M198.11,28.1c-4.39-2.63-9.36-3.94-14.9-3.94c-4.83,0-9.2,1.03-13.12,3.08c-3.93,2.05-7.07,4.77-9.45,8.15
			V4.21c0-1.29-0.38-2.32-1.14-3.08C158.74,0.38,157.75,0,156.53,0c-1.3,0-2.32,0.38-3.08,1.14c-0.76,0.76-1.13,1.78-1.13,3.08
			v50.41c0.07,5.62,1.42,10.68,4.05,15.17c2.63,4.5,6.19,8.05,10.69,10.64c4.5,2.59,9.56,3.89,15.17,3.89
			c5.76,0,10.91-1.32,15.45-3.94c4.54-2.63,8.12-6.21,10.75-10.75c2.63-4.54,3.94-9.68,3.94-15.44c0-5.69-1.28-10.8-3.83-15.34
			C205.98,34.32,202.5,30.73,198.11,28.1z M201.3,65.75c-1.91,3.38-4.52,6.07-7.83,8.05c-3.31,1.98-7.06,2.97-11.23,2.97
			c-4.1,0-7.81-0.99-11.13-2.97c-3.31-1.98-5.9-4.66-7.78-8.05c-1.87-3.38-2.81-7.24-2.81-11.56c0-4.25,0.93-8.08,2.81-11.51
			c1.87-3.42,4.47-6.1,7.78-8.05c3.31-1.94,7.02-2.92,11.13-2.92c4.18,0,7.92,0.97,11.23,2.92c3.31,1.95,5.92,4.63,7.83,8.05
			c1.91,3.42,2.86,7.26,2.86,11.51C204.16,58.51,203.21,62.36,201.3,65.75z"/>
		<path class="st3" d="M270.97,28.05c-4.5-2.59-9.63-3.89-15.39-3.89c-5.76,0-10.91,1.3-15.45,3.89c-4.54,2.59-8.1,6.16-10.69,10.69
			c-2.59,4.54-3.89,9.72-3.89,15.55c0,5.76,1.3,10.91,3.89,15.45c2.59,4.54,6.16,8.1,10.69,10.69c4.54,2.59,9.68,3.89,15.45,3.89
			c5.76,0,10.89-1.3,15.39-3.89c4.5-2.59,8.06-6.16,10.69-10.69c2.63-4.54,3.94-9.68,3.94-15.45c-0.07-5.83-1.4-11.02-4-15.55
			C279.01,34.21,275.46,30.64,270.97,28.05z M274.58,65.85c-1.88,3.38-4.47,6.05-7.78,7.99c-3.31,1.94-7.06,2.92-11.23,2.92
			c-4.18,0-7.92-0.97-11.23-2.92c-3.31-1.95-5.92-4.61-7.83-7.99c-1.91-3.38-2.86-7.24-2.86-11.56c0-4.32,0.96-8.19,2.86-11.61
			c1.91-3.42,4.52-6.1,7.83-8.05c3.31-1.94,7.06-2.92,11.23-2.92c4.18,0,7.92,0.97,11.23,2.92c3.31,1.95,5.9,4.63,7.78,8.05
			c1.87,3.42,2.81,7.29,2.81,11.61C277.39,58.62,276.45,62.47,274.58,65.85z"/>
		<path class="st3" d="M351.27,24.7c-1.22,0-2.21,0.38-2.97,1.13c-0.76,0.76-1.13,1.75-1.13,2.97v31.97c0,3.02-0.83,5.73-2.48,8.1
			c-1.66,2.38-3.91,4.25-6.75,5.62c-2.84,1.37-6.03,2.05-9.56,2.05c-3.67,0-6.97-0.72-9.89-2.16c-2.92-1.44-5.22-3.6-6.91-6.48
			c-1.69-2.88-2.54-6.55-2.54-11.02V28.8c0-1.15-0.4-2.12-1.19-2.92c-0.79-0.79-1.8-1.19-3.02-1.19c-1.15,0-2.12,0.4-2.92,1.19
			c-0.79,0.79-1.19,1.77-1.19,2.92v28.08c0,5.91,1.17,10.91,3.51,15.01c2.34,4.1,5.53,7.22,9.56,9.34c4.03,2.12,8.6,3.18,13.72,3.18
			c4.68,0,8.93-1.03,12.75-3.08c2.7-1.45,4.99-3.3,6.91-5.51v3.73c0,1.3,0.38,2.32,1.13,3.08c0.76,0.76,1.75,1.13,2.97,1.13
			c1.22,0,2.23-0.38,3.02-1.13c0.79-0.76,1.19-1.78,1.19-3.08V28.8c0-1.22-0.4-2.21-1.19-2.97C353.5,25.08,352.49,24.7,351.27,24.7z
			"/>
		<path class="st3" d="M416.62,27.24c-4.04-2.12-8.61-3.19-13.72-3.19c-4.68,0-8.93,1.03-12.75,3.08c-2.69,1.44-4.98,3.28-6.91,5.48
			v-3.7c0-1.29-0.38-2.32-1.13-3.08c-0.76-0.76-1.75-1.13-2.97-1.13c-1.3,0-2.32,0.38-3.08,1.13c-0.76,0.76-1.13,1.78-1.13,3.08
			v50.77c0,1.23,0.38,2.21,1.13,2.97c0.76,0.76,1.78,1.13,3.08,1.13c1.22,0,2.22-0.38,2.97-1.13c0.76-0.76,1.13-1.74,1.13-2.97
			V47.71c0-3.03,0.83-5.73,2.48-8.1c1.66-2.38,3.91-4.25,6.75-5.62c2.84-1.37,6.03-2.05,9.56-2.05c3.67,0,6.97,0.72,9.88,2.16
			c2.92,1.44,5.22,3.6,6.91,6.48c1.69,2.88,2.54,6.55,2.54,11.02v28.08c0,1.15,0.4,2.13,1.19,2.92c0.79,0.79,1.8,1.19,3.02,1.19
			c1.15,0,2.12-0.4,2.92-1.19c0.79-0.79,1.19-1.76,1.19-2.92V51.6c0-5.9-1.17-10.91-3.51-15.01
			C423.83,32.48,420.65,29.36,416.62,27.24z"/>
		<path class="st3" d="M500.75,0c-1.23,0-2.23,0.38-3.03,1.14c-0.79,0.76-1.19,1.78-1.19,3.08v31.18c-2.38-3.38-5.51-6.1-9.4-8.15
			c-3.89-2.05-8.25-3.08-13.07-3.08c-5.55,0-10.51,1.32-14.9,3.94c-4.39,2.63-7.87,6.21-10.42,10.75
			c-2.56,4.54-3.84,9.65-3.84,15.34c0,5.76,1.31,10.91,3.94,15.44c2.63,4.54,6.21,8.12,10.75,10.75c4.54,2.63,9.65,3.94,15.34,3.94
			c5.62,0,10.67-1.3,15.18-3.89c4.5-2.59,8.06-6.14,10.69-10.64c2.63-4.5,4.01-9.56,4.16-15.17V4.21c0-1.29-0.4-2.32-1.19-3.08
			C502.98,0.38,501.98,0,500.75,0z M493.9,65.75c-1.91,3.38-4.5,6.07-7.78,8.05c-3.28,1.98-7.01,2.97-11.18,2.97
			c-4.1,0-7.81-0.99-11.13-2.97c-3.31-1.98-5.94-4.66-7.88-8.05c-1.94-3.38-2.92-7.24-2.92-11.56c0-4.25,0.97-8.08,2.92-11.51
			c1.95-3.42,4.57-6.1,7.88-8.05c3.31-1.94,7.02-2.92,11.13-2.92c4.17,0,7.9,0.97,11.18,2.92c3.28,1.95,5.87,4.63,7.78,8.05
			c1.91,3.42,2.86,7.26,2.86,11.51C496.76,58.51,495.8,62.36,493.9,65.75z"/>
		<path class="st3" d="M539.85,75.58h-2.7c-1.94,0-3.54-0.97-4.8-2.92c-1.26-1.94-1.89-4.46-1.89-7.56V4.1
			c0-1.22-0.38-2.21-1.13-2.97C528.57,0.38,527.58,0,526.35,0c-1.22,0-2.22,0.38-2.97,1.14c-0.76,0.76-1.13,1.75-1.13,2.97V65.1
			c0,3.67,0.63,6.91,1.89,9.72c1.26,2.81,3.03,5,5.29,6.59c2.27,1.59,4.84,2.38,7.72,2.38h1.41c1.44,0,2.61-0.38,3.51-1.13
			c0.9-0.76,1.35-1.74,1.35-2.97c0-1.22-0.33-2.21-0.97-2.97C541.8,75.95,540.93,75.58,539.85,75.58z"/>
		<path class="st3" d="M591.1,27.89c-4.07-2.49-8.84-3.73-14.31-3.73c-5.54,0-10.44,1.3-14.69,3.89c-4.25,2.59-7.58,6.14-9.99,10.64
			c-2.41,4.5-3.62,9.7-3.62,15.61c0,5.83,1.28,11.02,3.84,15.56c2.55,4.54,6.08,8.08,10.58,10.64c4.5,2.56,9.67,3.84,15.5,3.84
			c3.38,0,6.91-0.66,10.59-2c3.67-1.33,6.7-3.01,9.07-5.02c0.86-0.72,1.28-1.58,1.24-2.59c-0.04-1.01-0.52-1.95-1.46-2.81
			c-0.72-0.57-1.58-0.84-2.59-0.81c-1.01,0.04-1.91,0.38-2.7,1.03c-1.58,1.37-3.69,2.5-6.32,3.4c-2.63,0.9-5.24,1.35-7.83,1.35
			c-4.32,0-8.14-0.97-11.45-2.92c-3.31-1.95-5.92-4.61-7.83-7.99c-1.51-2.67-2.39-5.67-2.71-8.97h43.59c1.15,0,2.09-0.34,2.81-1.03
			c0.72-0.69,1.08-1.6,1.08-2.75c0-5.62-1.12-10.62-3.35-15.01S595.17,30.37,591.1,27.89z M565.99,34.53
			c3.09-1.94,6.7-2.92,10.8-2.92c4.03,0,7.51,0.94,10.42,2.81c2.92,1.88,5.17,4.47,6.75,7.78c1.15,2.4,1.84,5.03,2.12,7.88h-39.5
			c0.38-2.71,1.09-5.23,2.22-7.51C560.5,39.16,562.89,36.48,565.99,34.53z"/>
		<path class="st3" d="M653.1,53.92c-3.13-1.69-7.4-2.97-12.8-3.83c-3.96-0.65-7.04-1.44-9.24-2.38c-2.19-0.93-3.74-2.02-4.64-3.24
			c-0.9-1.22-1.35-2.66-1.35-4.32c0-2.45,1.19-4.48,3.56-6.1c2.38-1.62,5.54-2.43,9.51-2.43c3.09,0,5.83,0.49,8.21,1.46
			c2.38,0.97,4.46,2.5,6.26,4.59c0.79,0.86,1.74,1.39,2.86,1.57c1.11,0.18,2.11,0.02,2.97-0.49c1.01-0.65,1.58-1.47,1.73-2.48
			c0.14-1.01-0.14-1.98-0.86-2.92c-2.16-2.81-4.99-5.04-8.48-6.7c-3.5-1.66-7.65-2.48-12.48-2.48c-3.89,0-7.45,0.61-10.69,1.84
			c-3.24,1.22-5.83,3.06-7.78,5.51c-1.94,2.45-2.92,5.51-2.92,9.18c0,3.96,1.69,7.38,5.08,10.26c3.38,2.88,8.71,4.9,15.99,6.05
			c5.62,0.94,9.65,2.25,12.1,3.94c2.45,1.69,3.67,3.83,3.67,6.43c-0.07,2.59-1.3,4.8-3.67,6.64c-2.38,1.84-6.23,2.75-11.56,2.75
			c-3.46,0-6.61-0.54-9.45-1.62c-2.84-1.08-5.13-2.63-6.86-4.64c-0.72-0.79-1.62-1.26-2.7-1.4c-1.08-0.14-2.12,0.14-3.13,0.86
			c-0.93,0.79-1.48,1.73-1.62,2.81c-0.14,1.08,0.18,2.05,0.97,2.92c2.59,2.88,5.98,5.04,10.15,6.48c4.18,1.44,8.39,2.16,12.64,2.16
			c4.54,0,8.55-0.72,12.04-2.16c3.49-1.44,6.23-3.44,8.21-5.99c1.98-2.56,2.97-5.52,2.97-8.91c0-2.66-0.67-5.13-2-7.4
			C658.46,57.59,656.23,55.61,653.1,53.92z"/>
		<path class="st3" d="M718.01,59.86c-1.33-2.27-3.56-4.25-6.7-5.94c-3.13-1.69-7.4-2.97-12.8-3.83c-3.96-0.65-7.04-1.44-9.24-2.38
			c-2.2-0.93-3.74-2.02-4.64-3.24c-0.9-1.22-1.35-2.66-1.35-4.32c0-2.45,1.19-4.48,3.56-6.1c2.38-1.62,5.54-2.43,9.5-2.43
			c3.09,0,5.83,0.49,8.21,1.46c2.38,0.97,4.46,2.5,6.26,4.59c0.79,0.86,1.74,1.39,2.86,1.57c1.11,0.18,2.11,0.02,2.97-0.49
			c1.01-0.65,1.58-1.47,1.73-2.48c0.14-1.01-0.14-1.98-0.86-2.92c-2.16-2.81-4.99-5.04-8.48-6.7c-3.5-1.66-7.65-2.48-12.48-2.48
			c-3.89,0-7.45,0.61-10.69,1.84c-3.24,1.22-5.83,3.06-7.78,5.51c-1.94,2.45-2.91,5.51-2.91,9.18c0,3.96,1.69,7.38,5.07,10.26
			c3.38,2.88,8.71,4.9,15.99,6.05c5.62,0.94,9.65,2.25,12.1,3.94c2.45,1.69,3.67,3.83,3.67,6.43c-0.07,2.59-1.3,4.8-3.67,6.64
			c-2.38,1.84-6.23,2.75-11.56,2.75c-3.46,0-6.61-0.54-9.45-1.62c-2.85-1.08-5.13-2.63-6.86-4.64c-0.72-0.79-1.62-1.26-2.7-1.4
			c-1.08-0.14-2.12,0.14-3.13,0.86c-0.93,0.79-1.48,1.73-1.62,2.81c-0.14,1.08,0.18,2.05,0.97,2.92c2.59,2.88,5.98,5.04,10.15,6.48
			c4.18,1.44,8.39,2.16,12.64,2.16c4.54,0,8.55-0.72,12.04-2.16c3.49-1.44,6.23-3.44,8.21-5.99c1.98-2.56,2.97-5.52,2.97-8.91
			C720.01,64.59,719.35,62.13,718.01,59.86z"/>
	</g>
	<g>
		<path d="M371.57,120.87c-0.55,0-0.97-0.23-1.27-0.71c-0.29-0.47-0.32-0.97-0.09-1.5l8.26-19.73c0.29-0.69,0.77-1.03,1.44-1.03
			c0.71,0,1.19,0.34,1.44,1.03l8.29,19.79c0.21,0.55,0.18,1.05-0.1,1.48c-0.28,0.44-0.71,0.66-1.28,0.66
			c-0.29,0-0.57-0.08-0.84-0.25c-0.27-0.17-0.46-0.4-0.57-0.69l-7.29-18.11h0.82l-7.41,18.11c-0.14,0.31-0.34,0.55-0.6,0.71
			C372.11,120.79,371.84,120.87,371.57,120.87z M373.12,115.81l1.18-2.53h11.53l1.18,2.53H373.12z"/>
		<path d="M408.93,121.16c-1.59,0-3.07-0.3-4.46-0.9c-1.38-0.6-2.59-1.43-3.62-2.5s-1.83-2.32-2.41-3.75
			c-0.58-1.43-0.87-2.98-0.87-4.65c0-1.65,0.29-3.18,0.87-4.6c0.58-1.42,1.38-2.67,2.41-3.74c1.03-1.07,2.23-1.91,3.6-2.51
			c1.37-0.61,2.86-0.91,4.47-0.91c1.51,0,2.81,0.2,3.9,0.59c1.09,0.39,2.18,1.04,3.28,1.94c0.16,0.12,0.28,0.24,0.37,0.37
			c0.09,0.13,0.15,0.25,0.18,0.38c0.03,0.13,0.04,0.28,0.04,0.46c0,0.37-0.13,0.68-0.4,0.93c-0.26,0.25-0.58,0.38-0.96,0.41
			c-0.37,0.03-0.73-0.09-1.09-0.37c-0.72-0.63-1.47-1.11-2.25-1.44c-0.78-0.33-1.8-0.5-3.07-0.5c-1.16,0-2.24,0.24-3.26,0.71
			c-1.02,0.47-1.92,1.12-2.69,1.94c-0.78,0.82-1.38,1.78-1.81,2.87c-0.43,1.09-0.65,2.25-0.65,3.48c0,1.26,0.21,2.43,0.65,3.51
			c0.43,1.09,1.03,2.04,1.81,2.87c0.77,0.82,1.67,1.47,2.69,1.93c1.02,0.46,2.11,0.69,3.26,0.69c1,0,1.95-0.17,2.84-0.52
			c0.89-0.34,1.75-0.82,2.57-1.43c0.35-0.25,0.7-0.37,1.05-0.34c0.34,0.03,0.63,0.17,0.87,0.41c0.23,0.24,0.35,0.58,0.35,1.01
			c0,0.2-0.04,0.39-0.12,0.57c-0.08,0.19-0.2,0.36-0.35,0.51c-1.06,0.84-2.19,1.48-3.4,1.91
			C411.54,120.94,410.27,121.16,408.93,121.16z"/>
		<path d="M436.82,121.16c-1.59,0-3.07-0.3-4.46-0.9c-1.38-0.6-2.59-1.43-3.62-2.5c-1.03-1.07-1.83-2.32-2.41-3.75
			c-0.58-1.43-0.87-2.98-0.87-4.65c0-1.65,0.29-3.18,0.87-4.6c0.58-1.42,1.38-2.67,2.41-3.74c1.03-1.07,2.23-1.91,3.6-2.51
			c1.37-0.61,2.86-0.91,4.47-0.91c1.51,0,2.81,0.2,3.9,0.59c1.09,0.39,2.18,1.04,3.28,1.94c0.16,0.12,0.28,0.24,0.37,0.37
			c0.09,0.13,0.15,0.25,0.18,0.38c0.03,0.13,0.04,0.28,0.04,0.46c0,0.37-0.13,0.68-0.4,0.93c-0.26,0.25-0.58,0.38-0.96,0.41
			c-0.37,0.03-0.73-0.09-1.09-0.37c-0.72-0.63-1.47-1.11-2.25-1.44c-0.78-0.33-1.8-0.5-3.07-0.5c-1.16,0-2.24,0.24-3.26,0.71
			c-1.02,0.47-1.92,1.12-2.69,1.94c-0.78,0.82-1.38,1.78-1.81,2.87c-0.43,1.09-0.65,2.25-0.65,3.48c0,1.26,0.21,2.43,0.65,3.51
			c0.43,1.09,1.03,2.04,1.81,2.87c0.77,0.82,1.67,1.47,2.69,1.93c1.02,0.46,2.11,0.69,3.26,0.69c1,0,1.95-0.17,2.84-0.52
			c0.89-0.34,1.75-0.82,2.57-1.43c0.35-0.25,0.7-0.37,1.05-0.34c0.34,0.03,0.63,0.17,0.87,0.41c0.23,0.24,0.35,0.58,0.35,1.01
			c0,0.2-0.04,0.39-0.12,0.57c-0.08,0.19-0.2,0.36-0.35,0.51c-1.06,0.84-2.19,1.48-3.4,1.91
			C439.42,120.94,438.15,121.16,436.82,121.16z"/>
		<path d="M456.51,120.87c-0.43,0-0.79-0.15-1.09-0.44c-0.29-0.29-0.44-0.66-0.44-1.09V99.43c0-0.45,0.15-0.82,0.44-1.1
			c0.29-0.28,0.66-0.43,1.09-0.43h13.29c0.45,0,0.81,0.13,1.09,0.4c0.27,0.26,0.41,0.61,0.41,1.04c0,0.41-0.14,0.75-0.41,1
			c-0.28,0.26-0.64,0.38-1.09,0.38h-11.76v7.15h8.44c0.45,0,0.81,0.13,1.09,0.4c0.27,0.26,0.41,0.6,0.41,1.01s-0.14,0.75-0.41,1.02
			c-0.28,0.26-0.64,0.4-1.09,0.4h-8.44v7.35h11.76c0.45,0,0.81,0.13,1.09,0.38c0.27,0.25,0.41,0.59,0.41,1
			c0,0.43-0.14,0.78-0.41,1.05c-0.28,0.26-0.64,0.4-1.09,0.4H456.51z"/>
		<path d="M482.94,120.87c-0.43,0-0.79-0.15-1.07-0.44c-0.29-0.29-0.43-0.66-0.43-1.09V99.43c0-0.43,0.15-0.8,0.44-1.09
			c0.29-0.29,0.65-0.44,1.06-0.44c0.43,0,0.79,0.15,1.09,0.44c0.29,0.29,0.44,0.66,0.44,1.09v18.38h10.64
			c0.43,0,0.79,0.15,1.09,0.44c0.29,0.29,0.44,0.66,0.44,1.09c0,0.43-0.15,0.8-0.44,1.09c-0.29,0.29-0.66,0.44-1.09,0.44H482.94z"/>
		<path d="M508.02,120.87c-0.43,0-0.79-0.15-1.09-0.44c-0.29-0.29-0.44-0.66-0.44-1.09V99.43c0-0.45,0.15-0.82,0.44-1.1
			c0.29-0.28,0.66-0.43,1.09-0.43h13.29c0.45,0,0.81,0.13,1.09,0.4c0.27,0.26,0.41,0.61,0.41,1.04c0,0.41-0.14,0.75-0.41,1
			c-0.28,0.26-0.64,0.38-1.09,0.38h-11.76v7.15h8.44c0.45,0,0.81,0.13,1.09,0.4c0.27,0.26,0.41,0.6,0.41,1.01s-0.14,0.75-0.41,1.02
			c-0.28,0.26-0.64,0.4-1.09,0.4h-8.44v7.35h11.76c0.45,0,0.81,0.13,1.09,0.38c0.27,0.25,0.41,0.59,0.41,1
			c0,0.43-0.14,0.78-0.41,1.05c-0.28,0.26-0.64,0.4-1.09,0.4H508.02z"/>
		<path d="M534.48,120.87c-0.43,0-0.79-0.15-1.09-0.44c-0.29-0.29-0.44-0.66-0.44-1.09V99.43c0-0.45,0.15-0.82,0.44-1.1
			c0.29-0.28,0.66-0.43,1.09-0.43h5.29c1.47,0,2.77,0.31,3.91,0.93c1.13,0.62,2.02,1.47,2.66,2.54s0.96,2.33,0.96,3.76
			c0,1.33-0.32,2.52-0.96,3.56c-0.64,1.04-1.53,1.85-2.66,2.44c-1.14,0.59-2.44,0.88-3.91,0.88h-3.76v7.32
			c0,0.43-0.14,0.8-0.43,1.09C535.3,120.72,534.93,120.87,534.48,120.87z M536.01,109.19h3.76c0.9,0,1.69-0.17,2.38-0.51
			c0.69-0.34,1.22-0.82,1.62-1.44c0.39-0.62,0.59-1.32,0.59-2.1c0-0.86-0.2-1.63-0.59-2.29c-0.39-0.67-0.93-1.19-1.62-1.56
			c-0.69-0.37-1.48-0.56-2.38-0.56h-3.76V109.19z M546.68,120.87c-0.28,0-0.53-0.06-0.75-0.18c-0.22-0.12-0.42-0.3-0.57-0.56
			l-5.29-8.53l2.97-0.85l4.82,7.76c0.35,0.57,0.4,1.1,0.15,1.6C547.75,120.62,547.31,120.87,546.68,120.87z"/>
		<path d="M558.17,120.87c-0.55,0-0.97-0.23-1.27-0.71c-0.29-0.47-0.32-0.97-0.09-1.5l8.26-19.73c0.29-0.69,0.77-1.03,1.44-1.03
			c0.71,0,1.19,0.34,1.44,1.03l8.29,19.79c0.21,0.55,0.18,1.05-0.1,1.48c-0.28,0.44-0.71,0.66-1.28,0.66
			c-0.29,0-0.57-0.08-0.84-0.25c-0.27-0.17-0.46-0.4-0.57-0.69l-7.29-18.11h0.82l-7.41,18.11c-0.14,0.31-0.34,0.55-0.6,0.71
			C558.71,120.79,558.44,120.87,558.17,120.87z M559.73,115.81l1.18-2.53h11.53l1.18,2.53H559.73z"/>
		<path d="M582.34,100.72c-0.41,0-0.75-0.13-1.01-0.4c-0.26-0.27-0.4-0.6-0.4-1.02c0-0.41,0.13-0.75,0.4-1.01s0.6-0.4,1.01-0.4
			h15.73c0.41,0,0.75,0.13,1.01,0.4c0.26,0.26,0.4,0.6,0.4,1.01c0,0.41-0.13,0.75-0.4,1.02c-0.27,0.26-0.6,0.4-1.01,0.4H582.34z
			 M590.22,120.87c-0.43,0-0.79-0.15-1.09-0.44c-0.29-0.29-0.44-0.66-0.44-1.09V97.9h3.06v21.44c0,0.43-0.15,0.8-0.44,1.09
			C591.01,120.72,590.65,120.87,590.22,120.87z"/>
		<path d="M618.5,121.16c-1.72,0-3.3-0.29-4.73-0.87c-1.43-0.58-2.66-1.39-3.69-2.44c-1.03-1.05-1.83-2.29-2.4-3.74
			c-0.57-1.44-0.85-3.02-0.85-4.75c0-1.72,0.29-3.3,0.85-4.73c0.57-1.43,1.37-2.67,2.4-3.72c1.03-1.05,2.26-1.86,3.69-2.44
			c1.43-0.58,3.01-0.87,4.73-0.87s3.3,0.29,4.72,0.87c1.42,0.58,2.65,1.39,3.69,2.44c1.04,1.05,1.84,2.29,2.41,3.72
			c0.57,1.43,0.85,3.01,0.85,4.73c0,1.73-0.28,3.31-0.85,4.75c-0.57,1.44-1.37,2.69-2.41,3.74c-1.04,1.05-2.27,1.86-3.69,2.44
			C621.8,120.87,620.22,121.16,618.5,121.16z M618.5,118.4c1.28,0,2.45-0.23,3.51-0.69s1.99-1.1,2.78-1.91
			c0.78-0.81,1.39-1.77,1.81-2.87s0.63-2.28,0.63-3.56c0-1.27-0.21-2.46-0.63-3.56c-0.42-1.1-1.02-2.05-1.81-2.87
			c-0.79-0.81-1.71-1.45-2.78-1.9c-1.07-0.45-2.24-0.68-3.51-0.68c-1.27,0-2.45,0.23-3.51,0.68c-1.07,0.45-1.99,1.08-2.76,1.9
			c-0.78,0.81-1.38,1.77-1.81,2.87c-0.43,1.1-0.65,2.28-0.65,3.56c0,1.28,0.21,2.46,0.65,3.56c0.43,1.1,1.03,2.05,1.81,2.87
			c0.77,0.81,1.69,1.45,2.76,1.91C616.05,118.17,617.22,118.4,618.5,118.4z"/>
		<path d="M642.59,120.87c-0.43,0-0.79-0.15-1.09-0.44c-0.29-0.29-0.44-0.66-0.44-1.09V99.43c0-0.45,0.15-0.82,0.44-1.1
			c0.29-0.28,0.66-0.43,1.09-0.43h5.29c1.47,0,2.77,0.31,3.91,0.93c1.14,0.62,2.02,1.47,2.66,2.54s0.96,2.33,0.96,3.76
			c0,1.33-0.32,2.52-0.96,3.56c-0.64,1.04-1.53,1.85-2.66,2.44c-1.14,0.59-2.44,0.88-3.91,0.88h-3.76v7.32
			c0,0.43-0.14,0.8-0.43,1.09C643.41,120.72,643.04,120.87,642.59,120.87z M644.12,109.19h3.76c0.9,0,1.69-0.17,2.38-0.51
			c0.69-0.34,1.22-0.82,1.62-1.44c0.39-0.62,0.59-1.32,0.59-2.1c0-0.86-0.2-1.63-0.59-2.29c-0.39-0.67-0.93-1.19-1.62-1.56
			c-0.69-0.37-1.48-0.56-2.38-0.56h-3.76V109.19z M654.79,120.87c-0.28,0-0.53-0.06-0.75-0.18c-0.22-0.12-0.42-0.3-0.57-0.56
			l-5.29-8.53l2.97-0.85l4.82,7.76c0.35,0.57,0.4,1.1,0.15,1.6C655.86,120.62,655.42,120.87,654.79,120.87z"/>
	</g>
</g>
<linearGradient id="SVGID_00000135680674860999836000000004355343155891604890_" gradientUnits="userSpaceOnUse" x1="1283.6982" y1="2749.6155" x2="1325.5339" y2="2749.6155" gradientTransform="matrix(1 0 -0.9004 -1 1221.8483 2784.4443)">
	<stop  offset="0" style="stop-color:#74CBE5"/>
	<stop  offset="1" style="stop-color:#8EC67E"/>
</linearGradient>
<path style="fill:url(#SVGID_00000135680674860999836000000004355343155891604890_);" d="M40.26,0H0l52.87,60.47
	c10.7,12.24,29.74,12.26,40.46,0.03l0,0L40.26,0z"/>
<linearGradient id="SVGID_00000044876573043416865320000004575492402107364030_" gradientUnits="userSpaceOnUse" x1="-1074.1737" y1="86.1906" x2="-1032.7273" y2="86.1906" gradientTransform="matrix(1 0 -0.9004 1 1221.8483 0)">
	<stop  offset="0" style="stop-color:#5C368F"/>
	<stop  offset="1" style="stop-color:#E11C66"/>
</linearGradient>
<path style="fill:url(#SVGID_00000044876573043416865320000004575492402107364030_);" d="M68.05,121H40.13L93.2,60.5
	c10.67-12.16,29.59-12.16,40.26,0l0,0l-44.94,51.23C83.35,117.62,75.89,121,68.05,121z"/>
</svg>
